<svg width="48" height="48" fill="none" xmlns="http://www.w3.org/2000/svg"><path d="M4 36h14v4H4v-4Zm0-14h18v4H4v-4ZM4 8h40v4H4V8Zm37.348 18.05 2.312-.782 2 3.464-1.832 1.61a8.034 8.034 0 0 1 0 3.316l1.832 1.61-2 3.464-2.312-.782a7.97 7.97 0 0 1-2.87 1.66L38 42h-4l-.48-2.392a7.992 7.992 0 0 1-2.868-1.66l-2.312.784-2-3.464 1.832-1.61a8.034 8.034 0 0 1 0-3.316l-1.832-1.61 2-3.464 2.312.782a7.97 7.97 0 0 1 2.87-1.66L34 22h4l.48 2.392a7.95 7.95 0 0 1 2.868 1.66v-.002ZM36 36a4 4 0 1 0 0-8 4 4 0 0 0 0 8Z" fill="#CE0000"/></svg>