<svg width="28" height="30" fill="none" xmlns="http://www.w3.org/2000/svg"><g filter="url(#a)"><path d="M15 19.938A8.001 8.001 0 0 0 14 4a8 8 0 0 0-1 15.938V14h-2v-2h2v-1.654c0-1.337.14-1.822.4-2.311.256-.484.652-.88 1.136-1.135.382-.205.857-.328 1.687-.381.329-.021.755.005 1.278.08v1.9H17c-.917 0-1.296.043-1.522.164a.727.727 0 0 0-.314.314c-.12.226-.164.45-.164 1.368V12h2.5l-.5 2h-2v5.938ZM14 22C8.477 22 4 17.523 4 12S8.477 2 14 2s10 4.477 10 10-4.477 10-10 10Z" fill="#111"/></g><defs><filter id="a" x="-2" y="0" width="32" height="32" filterUnits="userSpaceOnUse" color-interpolation-filters="sRGB"><feFlood flood-opacity="0" result="BackgroundImageFix"/><feColorMatrix in="SourceAlpha" values="0 0 0 0 0 0 0 0 0 0 0 0 0 0 0 0 0 0 127 0" result="hardAlpha"/><feOffset dy="4"/><feGaussianBlur stdDeviation="2"/><feComposite in2="hardAlpha" operator="out"/><feColorMatrix values="0 0 0 0 0 0 0 0 0 0 0 0 0 0 0 0 0 0 0.25 0"/><feBlend in2="BackgroundImageFix" result="effect1_dropShadow_1_1495"/><feBlend in="SourceGraphic" in2="effect1_dropShadow_1_1495" result="shape"/></filter></defs></svg>