<svg width="148" height="45" fill="none" xmlns="http://www.w3.org/2000/svg"><path d="M48.334 11.592h3.817v10.424h6.67v3.344H48.337l-.003-13.768ZM60.532 11.592h3.836V25.36h-3.836V11.592ZM66.887 11.592h3.561l5.664 7.277v-7.277h3.777V25.36h-3.342l-5.883-7.551v7.551h-3.777V11.592ZM82.325 11.592h11.078v3.246h-7.298v2.083h6.61v3.012h-6.61v2.182h7.4v3.245h-11.18V11.592ZM94.408 23.314l2.125-2.537a7.093 7.093 0 0 0 4.464 1.652c1.024 0 1.576-.354 1.576-.943v-.04c0-.57-.453-.885-2.322-1.32-2.932-.665-5.195-1.491-5.195-4.314v-.04c0-2.556 2.026-4.405 5.331-4.405 2.343 0 4.172.617 5.667 1.828l-1.909 2.694a6.907 6.907 0 0 0-3.857-1.356c-.925 0-1.375.394-1.375.884v.04c0 .617.472.903 2.38 1.338 3.167.687 5.134 1.71 5.134 4.287v.04c0 2.811-2.223 4.482-5.565 4.482-2.442-.022-4.764-.774-6.454-2.29ZM111.247 14.936h-4.132v-3.344h12.081v3.344h-4.132V25.36h-3.817V14.936ZM123.857 11.493h3.679l5.858 13.87h-4.088l-1.002-2.465h-5.313l-.984 2.465h-4.008l5.858-13.87Zm3.346 8.44-1.542-3.915-1.542 3.915h3.084ZM134.742 11.592h6.505c2.106 0 3.562.552 4.487 1.495.804.786 1.233 1.85 1.233 3.205v.043c0 2.106-1.119 3.502-2.831 4.23l3.284 4.798h-4.421l-2.775-4.17h-1.671v4.17h-3.811V11.592Zm6.336 6.608c1.298 0 2.044-.616 2.044-1.63v-.04c0-1.082-.786-1.634-2.066-1.634h-2.497V18.2h2.519Z" fill="#CE0000"/><path d="M48.408 28.208h1.03v8.162h5.137v.95h-6.167v-9.112ZM64.51 34.557a4.714 4.714 0 0 1-.953 1.505c-.416.44-.916.792-1.47 1.035a4.91 4.91 0 0 1-3.8 0 4.512 4.512 0 0 1-2.41-2.518 4.99 4.99 0 0 1-.33-1.806 4.866 4.866 0 0 1 .336-1.803 4.802 4.802 0 0 1 .952-1.504 4.5 4.5 0 0 1 1.471-1.036 4.91 4.91 0 0 1 3.799 0 4.482 4.482 0 0 1 2.41 2.521c.224.575.337 1.187.334 1.803a4.845 4.845 0 0 1-.34 1.803Zm-.993-3.248a3.623 3.623 0 0 0-.75-1.2 3.67 3.67 0 0 0-1.14-.807 3.517 3.517 0 0 0-2.88 0c-.427.187-.812.46-1.129.802a3.801 3.801 0 0 0-.733 1.19 4.153 4.153 0 0 0 0 2.937 3.578 3.578 0 0 0 1.887 2.006c.452.206.943.311 1.44.308.496.002.987-.103 1.44-.308.427-.187.81-.46 1.128-.801.318-.347.567-.75.737-1.19a4.2 4.2 0 0 0 0-2.937ZM73.35 37.073c-.661.28-1.373.419-2.091.41a4.886 4.886 0 0 1-1.936-.367 4.274 4.274 0 0 1-2.384-2.5 5.237 5.237 0 0 1-.308-1.85 4.932 4.932 0 0 1 .333-1.796 4.76 4.76 0 0 1 .925-1.51 4.412 4.412 0 0 1 3.305-1.412 6.49 6.49 0 0 1 1.049.08c.302.049.598.127.884.234.269.102.526.23.768.383.243.156.476.328.697.514l-.663.783a4.413 4.413 0 0 0-.549-.422 3.666 3.666 0 0 0-1.347-.543 4.551 4.551 0 0 0-.879-.077 3.223 3.223 0 0 0-1.394.308c-.416.194-.788.47-1.094.811-.311.35-.555.755-.719 1.193a4.069 4.069 0 0 0-.259 1.455c-.005.517.08 1.031.253 1.52.158.447.404.858.725 1.208a3.3 3.3 0 0 0 1.131.795c.475.197.985.294 1.499.286a4.047 4.047 0 0 0 1.474-.268 4.36 4.36 0 0 0 1.16-.647v-2.28h-2.776v-.926h3.771v3.637a5.973 5.973 0 0 1-1.576.98ZM78.36 28.208v9.117h-1.03v-9.117h1.03ZM81.927 31.065c.083.189.213.353.38.475.229.17.484.301.755.391.403.14.815.251 1.233.333.81.132 1.58.448 2.248.925a2.029 2.029 0 0 1 .715 1.67 2.408 2.408 0 0 1-.87 1.893c-.29.235-.623.411-.98.52a4.057 4.057 0 0 1-1.252.183 5.49 5.49 0 0 1-2-.352 5.695 5.695 0 0 1-1.725-1.094l.639-.755c.426.4.914.728 1.446.97a4.148 4.148 0 0 0 1.68.31 2.338 2.338 0 0 0 1.477-.432 1.365 1.365 0 0 0 .555-1.135c.004-.199-.031-.397-.105-.582a1.137 1.137 0 0 0-.367-.462 2.57 2.57 0 0 0-.724-.38 9.213 9.213 0 0 0-1.181-.323 9.953 9.953 0 0 1-1.363-.392 3.392 3.392 0 0 1-.962-.536 1.958 1.958 0 0 1-.561-.73 2.43 2.43 0 0 1-.182-.993 2.294 2.294 0 0 1 .219-1.002c.146-.304.357-.573.617-.789a3.06 3.06 0 0 1 .952-.524c.387-.129.792-.193 1.2-.188a5.121 5.121 0 0 1 1.751.275c.525.199 1.015.48 1.452.832l-.598.795a4.366 4.366 0 0 0-1.286-.755 3.888 3.888 0 0 0-1.347-.234 2.516 2.516 0 0 0-.802.117 2.03 2.03 0 0 0-.616.308c-.166.125-.3.286-.392.472a1.266 1.266 0 0 0-.136.585c.004.208.048.413.13.604ZM92.611 37.325h-1.036v-8.164h-3.062v-.953h7.154v.953h-3.062l.006 8.164ZM98.735 28.208v9.117h-1.03v-9.117h1.03ZM108.487 36.536a4.42 4.42 0 0 1-.829.503 4.788 4.788 0 0 1-.95.326c-.372.082-.753.12-1.134.117a4.49 4.49 0 0 1-4.228-2.854 4.959 4.959 0 0 1-.345-1.849 4.9 4.9 0 0 1 .345-1.834c.221-.559.547-1.07.959-1.507a4.44 4.44 0 0 1 1.459-1.014 4.57 4.57 0 0 1 1.85-.373c.378-.003.756.033 1.128.105.318.07.628.174.925.308.281.123.548.276.796.456.245.183.48.381.703.592l-.703.758a5.736 5.736 0 0 0-1.258-.9 3.525 3.525 0 0 0-4.132.73 3.647 3.647 0 0 0-.743 1.19 4.084 4.084 0 0 0-.265 1.48c-.004.507.086 1.01.265 1.485.168.443.421.85.743 1.196.317.34.698.612 1.122.802.439.203.917.309 1.4.308a3.511 3.511 0 0 0 1.616-.345 5.612 5.612 0 0 0 1.329-.968l.678.663a6.327 6.327 0 0 1-.731.625ZM111.925 31.066c.083.188.213.352.379.474.23.17.485.302.756.392.403.14.815.25 1.233.332.81.132 1.58.448 2.248.925a2.028 2.028 0 0 1 .724 1.655 2.413 2.413 0 0 1-.869 1.893 2.929 2.929 0 0 1-.981.52 4.052 4.052 0 0 1-1.251.183 5.506 5.506 0 0 1-2.002-.352 5.705 5.705 0 0 1-1.723-1.094l.638-.755c.426.4.914.728 1.446.97a4.152 4.152 0 0 0 1.681.309 2.34 2.34 0 0 0 1.477-.432 1.368 1.368 0 0 0 .555-1.134c.004-.2-.032-.397-.105-.582a1.14 1.14 0 0 0-.367-.463 2.58 2.58 0 0 0-.725-.379 9.182 9.182 0 0 0-1.181-.323 9.98 9.98 0 0 1-1.363-.392 3.412 3.412 0 0 1-.962-.536 1.97 1.97 0 0 1-.561-.73 2.445 2.445 0 0 1-.182-.993 2.295 2.295 0 0 1 .21-.965c.146-.304.357-.573.617-.789.284-.23.606-.407.952-.524.387-.13.792-.193 1.2-.188a5.105 5.105 0 0 1 1.751.274c.525.2 1.015.48 1.452.833l-.598.795a4.369 4.369 0 0 0-1.285-.755 3.886 3.886 0 0 0-1.348-.235 2.524 2.524 0 0 0-.802.117c-.221.067-.43.172-.616.309-.166.125-.3.286-.392.471a1.266 1.266 0 0 0-.135.586c.006.2.05.398.129.582ZM123.269 28.208h1.029v8.162h5.131v.95h-6.167l.007-9.112ZM131.331 28.208h1.03v8.162h5.134v.95h-6.167l.003-9.112ZM145.956 36.536a4.41 4.41 0 0 1-.827.503c-.304.14-.622.25-.949.326-.373.081-.754.12-1.135.117a4.472 4.472 0 0 1-4.227-2.854 4.899 4.899 0 0 1-.346-1.849 4.86 4.86 0 0 1 1.302-3.341 4.458 4.458 0 0 1 1.461-1.014 4.57 4.57 0 0 1 1.85-.373c.378-.003.755.032 1.126.105.318.07.628.174.925.308.281.123.547.276.795.456.247.182.482.38.703.592l-.703.758a5.736 5.736 0 0 0-1.258-.9 3.513 3.513 0 0 0-4.129.73 3.664 3.664 0 0 0-.743 1.19 4 4 0 0 0-.268 1.48 4.076 4.076 0 0 0 .268 1.485c.169.443.421.85.743 1.196.317.339.697.611 1.12.802.439.203.918.309 1.403.308a3.496 3.496 0 0 0 1.612-.345c.489-.254.937-.58 1.329-.968l.678.663a6.094 6.094 0 0 1-.73.625ZM29.831 16.897h12.152v9.064H19.474V.29c-.484.07-.965.15-1.436.25v27.067H44.32a22.311 22.311 0 0 0-2.143-15.977A22.324 22.324 0 0 0 29.828 1.264l.003 15.633Z" fill="#000"/><path d="M7.708 36.678V5.785A22.319 22.319 0 0 0 .293 22a22.311 22.311 0 0 0 6.83 16.47 22.329 22.329 0 0 0 25.518 3.87 22.325 22.325 0 0 0 7.134-5.662H7.708ZM41.252 39.908h-1.816v1.701h1.64v.222h-1.64v1.73h1.816v.221h-2.078v-4.099h2.078v.225ZM45.59 41.949l-1.058 1.849h-.308l1.234-2.074-1.234-2.038h.309l1.094 1.828 1.076-1.828h.308l-1.233 2.056 1.233 2.056h-.308l-1.113-1.85ZM51.945 39.643a1.884 1.884 0 0 1 1.887 1.248h-.309a1.579 1.579 0 0 0-1.581-1.014c-.944 0-1.693.703-1.693 1.868s.75 1.85 1.693 1.85a1.58 1.58 0 0 0 1.581-1.014h.309a1.883 1.883 0 0 1-1.887 1.248c-1.126 0-1.961-.866-1.961-2.09 0-1.223.835-2.096 1.96-2.096ZM59.2 39.908h-1.82v1.701h1.638v.222h-1.637v1.73H59.2v.221h-2.081v-4.099H59.2v.225ZM62.715 39.683v3.89h1.541v.222h-1.79v-4.112h.249ZM67.565 39.683v3.89h1.526v.222H67.3v-4.112h.265ZM74.228 39.908h-1.816v1.701h1.64v.222h-1.64v1.73h1.816v.221H72.15v-4.099h2.078v.225ZM80.426 39.69v4.105h-.26l-2.41-3.677v3.677h-.266V39.69h.266l2.41 3.664V39.69h.26ZM85.649 39.643a1.884 1.884 0 0 1 1.887 1.248h-.308a1.578 1.578 0 0 0-1.582-1.014c-.944 0-1.693.703-1.693 1.868s.75 1.85 1.693 1.85a1.58 1.58 0 0 0 1.582-1.014h.308a1.884 1.884 0 0 1-1.887 1.248c-1.126 0-1.961-.866-1.961-2.09 0-1.223.835-2.096 1.96-2.096ZM92.898 39.908h-1.813v1.701h1.637v.222h-1.637v1.73h1.813v.221H90.82v-4.099h2.078v.225ZM100.267 39.683h.25v4.112h-.262l.012-4.112ZM106.896 39.69v4.105h-.265l-2.414-3.677v3.677h-.265V39.69h.265l2.411 3.664V39.69h.268ZM114.432 39.76h.284l1.637 3.699 1.64-3.699h.275v4.007h-.263v-3.446l-1.541 3.474h-.222L114.7 40.32v3.474h-.265l-.003-4.035ZM123.528 43.841c-1.147 0-1.998-.866-1.998-2.096s.851-2.096 1.998-2.096 1.998.86 1.998 2.096c0 1.236-.851 2.096-1.998 2.096Zm0-.234c.965 0 1.72-.709 1.72-1.85 0-1.14-.755-1.867-1.72-1.867s-1.727.709-1.727 1.868c0 1.158.762 1.849 1.727 1.849ZM128.449 39.683h2.593v.225h-1.172v3.887h-.265v-3.887h-1.168l.012-.225ZM134.141 39.683h.262v4.112h-.262v-4.112ZM139.675 43.841c-1.15 0-1.998-.866-1.998-2.096s.848-2.096 1.998-2.096 1.995.86 1.995 2.096c0 1.236-.861 2.096-1.995 2.096Zm0-.234c.965 0 1.72-.709 1.72-1.85 0-1.14-.755-1.867-1.72-1.867s-1.73.709-1.73 1.868c0 1.158.749 1.849 1.73 1.849ZM147.855 39.69v4.105h-.262l-2.414-3.677v3.677h-.262V39.69h.265l2.414 3.664V39.69h.259Z" fill="#CE0000"/></svg>