<svg width="356" height="114" fill="none" xmlns="http://www.w3.org/2000/svg"><g filter="url(#a)"><path d="M117.648 27.306h8.976V51.86h15.682v7.878h-24.65l-.008-32.432ZM146.331 27.306h9.019v32.432h-9.019V27.306ZM161.274 27.306h8.374l13.318 17.142V27.306h8.881v32.432h-7.859L170.155 41.95v17.788h-8.881V27.306ZM197.574 27.306h26.049v7.645h-17.161v4.908h15.545v7.093h-15.545v5.14h17.401v7.646h-26.289V27.306ZM225.988 54.917l4.996-5.976a16.66 16.66 0 0 0 10.498 3.892c2.407 0 3.704-.835 3.704-2.222v-.094c0-1.343-1.065-2.084-5.459-3.107-6.895-1.569-12.216-3.514-12.216-10.165v-.094c0-6.019 4.763-10.375 12.535-10.375 5.51 0 9.809 1.452 13.326 4.305l-4.488 6.346a16.226 16.226 0 0 0-9.07-3.195c-2.175 0-3.233.93-3.233 2.084v.094c0 1.452 1.109 2.128 5.597 3.151 7.445 1.62 12.071 4.03 12.071 10.1v.094c0 6.621-5.227 10.556-13.086 10.556-5.742-.05-11.202-1.822-15.175-5.394ZM265.582 35.184h-9.715v-7.878h28.406v7.878h-9.715v24.554h-8.976V35.184ZM295.232 27.074h8.649l13.775 32.671h-9.613l-2.356-5.808h-12.492l-2.313 5.808h-9.425l13.775-32.671Zm7.866 19.878-3.625-9.22-3.625 9.22h7.25ZM320.824 27.306h15.298c4.951 0 8.373 1.3 10.548 3.521 1.893 1.852 2.9 4.357 2.9 7.551v.102c0 4.959-2.631 8.247-6.655 9.96l7.721 11.305H340.24l-6.525-9.823h-3.93v9.823h-8.961V27.306Zm14.899 15.566c3.052 0 4.807-1.452 4.807-3.84v-.095c0-2.548-1.849-3.848-4.858-3.848H329.8v7.783h5.923Z" fill="#CE0000"/><path d="M117.825 66.446h2.421V85.67h12.079v2.236h-14.5V66.446ZM155.686 81.402a11.114 11.114 0 0 1-2.241 3.543 10.582 10.582 0 0 1-3.458 2.44 11.527 11.527 0 0 1-8.932 0 10.627 10.627 0 0 1-5.669-5.932 11.78 11.78 0 0 1-.776-4.255 11.47 11.47 0 0 1 .79-4.247c.52-1.31 1.28-2.512 2.24-3.543a10.597 10.597 0 0 1 3.459-2.44 11.525 11.525 0 0 1 8.932 0 10.546 10.546 0 0 1 5.669 5.94c.525 1.353.791 2.794.783 4.247a11.431 11.431 0 0 1-.797 4.247Zm-2.335-7.652a8.528 8.528 0 0 0-1.762-2.825 8.62 8.62 0 0 0-2.682-1.902 8.06 8.06 0 0 0-3.386-.726 8.259 8.259 0 0 0-3.386.726 7.976 7.976 0 0 0-2.653 1.888 8.976 8.976 0 0 0-1.726 2.802 9.803 9.803 0 0 0 0 6.92 8.438 8.438 0 0 0 4.437 4.726 8.06 8.06 0 0 0 3.386.726 8.14 8.14 0 0 0 3.386-.726 7.966 7.966 0 0 0 2.653-1.888 8.892 8.892 0 0 0 1.733-2.802 9.902 9.902 0 0 0 0-6.92ZM176.471 87.326c-1.554.66-3.228.989-4.916.966-1.56.025-3.109-.27-4.553-.864a10.062 10.062 0 0 1-5.604-5.888 12.359 12.359 0 0 1-.725-4.356 11.644 11.644 0 0 1 .783-4.233 11.223 11.223 0 0 1 2.175-3.557 10.378 10.378 0 0 1 7.772-3.326 15.2 15.2 0 0 1 2.465.19c.71.113 1.407.298 2.081.551.631.238 1.235.54 1.805.9.571.37 1.119.774 1.639 1.213l-1.559 1.844a10.377 10.377 0 0 0-1.291-.995 8.563 8.563 0 0 0-3.168-1.278 10.675 10.675 0 0 0-2.066-.181 7.567 7.567 0 0 0-3.277.726 7.976 7.976 0 0 0-2.574 1.91 8.967 8.967 0 0 0-1.689 2.809 9.613 9.613 0 0 0-.609 3.427 10.41 10.41 0 0 0 .594 3.58 8.332 8.332 0 0 0 1.704 2.845 7.761 7.761 0 0 0 2.661 1.873 8.812 8.812 0 0 0 3.523.676 9.501 9.501 0 0 0 3.466-.632c.981-.366 1.9-.88 2.726-1.525V78.63h-6.525V76.45h8.867v8.567a14.067 14.067 0 0 1-3.705 2.308ZM188.254 66.446v21.476h-2.422V66.446h2.422ZM196.637 73.176c.195.445.502.83.892 1.118.54.4 1.14.71 1.776.922.948.33 1.917.591 2.9.784a12.553 12.553 0 0 1 5.286 2.178 4.781 4.781 0 0 1 1.682 3.936 5.692 5.692 0 0 1-2.045 4.457 6.868 6.868 0 0 1-2.305 1.227 9.524 9.524 0 0 1-2.944.429c-1.606.02-3.202-.261-4.705-.828a13.392 13.392 0 0 1-4.053-2.577l1.501-1.78a12.605 12.605 0 0 0 3.4 2.288 9.74 9.74 0 0 0 3.951.726 5.491 5.491 0 0 0 3.473-1.016c.416-.308.752-.711.98-1.176.227-.465.338-.979.325-1.496.01-.47-.074-.936-.246-1.372a2.682 2.682 0 0 0-.863-1.09 6.05 6.05 0 0 0-1.704-.893 21.637 21.637 0 0 0-2.777-.762 23.415 23.415 0 0 1-3.204-.922 7.966 7.966 0 0 1-2.262-1.263 4.615 4.615 0 0 1-1.32-1.72 5.725 5.725 0 0 1-.427-2.339 5.403 5.403 0 0 1 .514-2.36 5.526 5.526 0 0 1 1.45-1.858 7.184 7.184 0 0 1 2.241-1.234 8.542 8.542 0 0 1 2.82-.443c1.4-.026 2.793.193 4.118.646a12.566 12.566 0 0 1 3.415 1.96l-1.407 1.873a10.259 10.259 0 0 0-3.023-1.778 9.123 9.123 0 0 0-3.168-.552 5.906 5.906 0 0 0-1.885.276 4.769 4.769 0 0 0-1.45.726 3.144 3.144 0 0 0-.921 1.11c-.215.428-.325.901-.319 1.38.009.49.112.973.304 1.423ZM221.76 87.922h-2.436V68.689h-7.199v-2.243h16.82v2.243h-7.199l.014 19.233ZM236.16 66.446v21.476h-2.421V66.446h2.421ZM259.091 86.063c-.605.465-1.259.862-1.951 1.184-.715.334-1.463.592-2.233.77-.876.19-1.771.283-2.668.275a10.53 10.53 0 0 1-4.284-.864 10.451 10.451 0 0 1-3.401-2.345 10.658 10.658 0 0 1-2.254-3.514 11.678 11.678 0 0 1-.812-4.356 11.53 11.53 0 0 1 .812-4.32 11.129 11.129 0 0 1 2.254-3.55 10.451 10.451 0 0 1 3.43-2.389 10.727 10.727 0 0 1 4.35-.878c.89-.006 1.779.076 2.653.247.748.166 1.477.41 2.175.726a9.883 9.883 0 0 1 1.871 1.074c.578.432 1.13.897 1.653 1.394l-1.653 1.786a13.463 13.463 0 0 0-2.958-2.12 8.272 8.272 0 0 0-9.715 1.72 8.598 8.598 0 0 0-1.748 2.803 9.623 9.623 0 0 0-.623 3.485 9.767 9.767 0 0 0 .623 3.5c.396 1.043.989 2 1.748 2.817a8.159 8.159 0 0 0 2.639 1.887 7.776 7.776 0 0 0 3.291.726 8.242 8.242 0 0 0 3.799-.813 13.187 13.187 0 0 0 3.125-2.28l1.595 1.561a14.985 14.985 0 0 1-1.718 1.474ZM267.174 73.176c.195.445.502.83.892 1.118.54.4 1.139.71 1.776.922.947.33 1.916.591 2.9.785a12.543 12.543 0 0 1 5.285 2.178 4.777 4.777 0 0 1 1.704 3.898 5.678 5.678 0 0 1-2.044 4.458 6.861 6.861 0 0 1-2.306 1.227 9.52 9.52 0 0 1-2.943.428 12.923 12.923 0 0 1-4.706-.827 13.386 13.386 0 0 1-4.052-2.578l1.5-1.778a12.61 12.61 0 0 0 3.401 2.287 9.736 9.736 0 0 0 3.951.726 5.49 5.49 0 0 0 3.473-1.017 3.214 3.214 0 0 0 1.305-2.671 3.538 3.538 0 0 0-.247-1.373 2.674 2.674 0 0 0-.863-1.089 6.047 6.047 0 0 0-1.703-.893 21.681 21.681 0 0 0-2.777-.762 23.388 23.388 0 0 1-3.205-.922 7.99 7.99 0 0 1-2.262-1.264 4.611 4.611 0 0 1-1.319-1.72 5.743 5.743 0 0 1-.428-2.338 5.416 5.416 0 0 1 .493-2.272 5.527 5.527 0 0 1 1.45-1.86 7.26 7.26 0 0 1 2.24-1.233 8.545 8.545 0 0 1 2.821-.443 11.995 11.995 0 0 1 4.118.646 12.543 12.543 0 0 1 3.414 1.96l-1.406 1.873a10.274 10.274 0 0 0-3.023-1.778 9.129 9.129 0 0 0-3.169-.552 5.907 5.907 0 0 0-1.885.276 4.78 4.78 0 0 0-1.45.726 3.141 3.141 0 0 0-.92 1.11c-.216.428-.325.901-.319 1.38.015.472.118.938.304 1.372ZM293.847 66.446h2.421V85.67h12.064v2.236h-14.5l.015-21.461ZM312.804 66.446h2.422V85.67h12.071v2.236h-14.5l.007-21.461ZM347.194 86.063c-.603.465-1.254.862-1.943 1.184-.716.332-1.465.59-2.233.77-.877.19-1.771.283-2.668.275a10.51 10.51 0 0 1-6.021-1.804 10.532 10.532 0 0 1-3.919-4.919 11.555 11.555 0 0 1-.812-4.356c-.012-1.48.264-2.946.812-4.32a11.135 11.135 0 0 1 2.247-3.55 10.485 10.485 0 0 1 3.437-2.389 10.73 10.73 0 0 1 4.35-.878c.888-.007 1.775.076 2.646.247.748.165 1.477.409 2.175.726a9.883 9.883 0 0 1 1.871 1.074c.581.428 1.133.894 1.653 1.394l-1.653 1.786a13.463 13.463 0 0 0-2.958-2.12 8.25 8.25 0 0 0-9.708 1.72 8.595 8.595 0 0 0-1.747 2.803 9.455 9.455 0 0 0-.631 3.485 9.617 9.617 0 0 0 .631 3.5c.396 1.043.989 2 1.747 2.817a8.222 8.222 0 0 0 2.632 1.887 7.801 7.801 0 0 0 3.298.726 8.212 8.212 0 0 0 3.792-.813 12.904 12.904 0 0 0 3.125-2.28l1.595 1.561a14.386 14.386 0 0 1-1.718 1.474ZM74.141 39.801h28.573v21.353H49.789V.684c-1.139.166-2.27.355-3.379.587v63.76h61.799a52.637 52.637 0 0 0-5.039-37.634 52.514 52.514 0 0 0-29.036-24.42l.007 36.825Z" fill="#000"/><path d="M22.125 86.397v-72.77A52.567 52.567 0 0 0 9.432 30.905a52.634 52.634 0 0 0 11.315 59.712 52.442 52.442 0 0 0 76.777-4.22h-75.4ZM101 94.006h-4.27v4.008h3.857v.523h-3.858v4.072H101v.523h-4.887v-9.656H101v.53ZM111.2 98.812l-2.487 4.357h-.725l2.9-4.887-2.9-4.799h.725l2.574 4.306 2.53-4.306h.725l-2.9 4.843 2.9 4.843h-.725l-2.617-4.357ZM126.142 93.381a4.427 4.427 0 0 1 4.437 2.94h-.725a3.712 3.712 0 0 0-3.719-2.388c-2.218 0-3.98 1.655-3.98 4.4 0 2.744 1.762 4.356 3.98 4.356a3.71 3.71 0 0 0 3.719-2.389h.725a4.432 4.432 0 0 1-4.437 2.941c-2.646 0-4.611-2.04-4.611-4.923 0-2.882 1.965-4.937 4.611-4.937ZM143.202 94.006h-4.277v4.008h3.85v.523h-3.85v4.072h4.277v.523h-4.893v-9.656h4.893v.53ZM151.466 93.476v9.163h3.625v.522h-4.212v-9.685h.587ZM162.87 93.476v9.162h3.589v.523h-4.212v-9.685h.623ZM178.539 94.006h-4.27v4.008h3.857v.523h-3.857v4.072h4.27v.523h-4.887v-9.656h4.887v.53ZM193.109 93.49v9.671h-.609l-5.669-8.661v8.661h-.624v-9.67h.624l5.669 8.632v-8.632h.609ZM205.388 93.381a4.427 4.427 0 0 1 4.437 2.94h-.725a3.712 3.712 0 0 0-3.719-2.388c-2.218 0-3.98 1.655-3.98 4.4 0 2.744 1.762 4.356 3.98 4.356a3.71 3.71 0 0 0 3.719-2.389h.725a4.427 4.427 0 0 1-4.437 2.941c-2.646 0-4.611-2.04-4.611-4.923 0-2.882 1.965-4.937 4.611-4.937ZM222.436 94.006h-4.263v4.008h3.85v.522h-3.85v4.073h4.263v.523h-4.886v-9.656h4.886v.53ZM239.763 93.476h.588v9.685h-.617l.029-9.685ZM255.35 93.49v9.671h-.624L249.05 94.5v8.661h-.624v-9.67h.624l5.669 8.632v-8.632h.631ZM273.07 93.658h.667l3.85 8.712 3.857-8.712h.645v9.438h-.616v-8.117l-3.625 8.182h-.522l-3.625-8.182v8.182h-.623l-.008-9.503ZM294.457 103.27c-2.697 0-4.698-2.04-4.698-4.937 0-2.897 2.001-4.937 4.698-4.937 2.697 0 4.698 2.026 4.698 4.937 0 2.912-2.001 4.937-4.698 4.937Zm0-.552c2.269 0 4.045-1.669 4.045-4.356 0-2.686-1.776-4.4-4.045-4.4-2.27 0-4.06 1.67-4.06 4.4 0 2.73 1.79 4.356 4.06 4.356ZM306.03 93.476h6.097v.53h-2.755v9.155h-.624v-9.155h-2.747l.029-.53ZM319.41 93.476h.616v9.685h-.616v-9.685ZM332.425 103.27c-2.705 0-4.698-2.04-4.698-4.936 0-2.897 1.993-4.938 4.698-4.938 2.704 0 4.69 2.026 4.69 4.938 0 2.911-2.022 4.936-4.69 4.936Zm0-.551c2.269 0 4.045-1.67 4.045-4.356 0-2.687-1.776-4.4-4.045-4.4-2.27 0-4.068 1.67-4.068 4.4 0 2.729 1.762 4.356 4.068 4.356ZM351.658 93.49v9.671h-.616l-5.677-8.661v8.661h-.616v-9.67h.624l5.676 8.632v-8.632h.609Z" fill="#CE0000"/></g><defs><filter id="a" x="0" y="0" width="356" height="114" filterUnits="userSpaceOnUse" color-interpolation-filters="sRGB"><feFlood flood-opacity="0" result="BackgroundImageFix"/><feColorMatrix in="SourceAlpha" values="0 0 0 0 0 0 0 0 0 0 0 0 0 0 0 0 0 0 127 0" result="hardAlpha"/><feOffset dy="4"/><feGaussianBlur stdDeviation="2"/><feComposite in2="hardAlpha" operator="out"/><feColorMatrix values="0 0 0 0 0 0 0 0 0 0 0 0 0 0 0 0 0 0 0.25 0"/><feBlend in2="BackgroundImageFix" result="effect1_dropShadow_1_1531"/><feBlend in="SourceGraphic" in2="effect1_dropShadow_1_1531" result="shape"/></filter></defs></svg>