<svg width="28" height="28" fill="none" xmlns="http://www.w3.org/2000/svg"><g filter="url(#a)"><path d="M21.606 6.995c-.076-.298-.292-.523-.539-.592C20.63 6.28 18.5 6 14 6s-6.628.28-7.069.403c-.244.068-.46.293-.537.592C6.285 7.419 6 9.196 6 12s.285 4.58.394 5.006c.076.297.292.522.538.59C7.372 17.72 9.5 18 14 18s6.629-.28 7.069-.403c.244-.068.46-.293.537-.592C21.715 16.581 22 14.8 22 12s-.285-4.58-.394-5.005Zm1.937-.497C24 8.28 24 12 24 12s0 3.72-.457 5.502c-.254.985-.997 1.76-1.938 2.022C19.896 20 14 20 14 20s-5.893 0-7.605-.476c-.945-.266-1.687-1.04-1.938-2.022C4 15.72 4 12 4 12s0-3.72.457-5.502c.254-.985.997-1.76 1.938-2.022C8.107 4 14 4 14 4s5.896 0 7.605.476c.945.266 1.687 1.04 1.938 2.022ZM12 15.5v-7l6 3.5-6 3.5Z" fill="#111"/></g><defs><filter id="a" x="-2" y="0" width="32" height="32" filterUnits="userSpaceOnUse" color-interpolation-filters="sRGB"><feFlood flood-opacity="0" result="BackgroundImageFix"/><feColorMatrix in="SourceAlpha" values="0 0 0 0 0 0 0 0 0 0 0 0 0 0 0 0 0 0 127 0" result="hardAlpha"/><feOffset dy="4"/><feGaussianBlur stdDeviation="2"/><feComposite in2="hardAlpha" operator="out"/><feColorMatrix values="0 0 0 0 0 0 0 0 0 0 0 0 0 0 0 0 0 0 0.25 0"/><feBlend in2="BackgroundImageFix" result="effect1_dropShadow_1_1498"/><feBlend in="SourceGraphic" in2="effect1_dropShadow_1_1498" result="shape"/></filter></defs></svg>